<svg width="32" height="33" viewBox="0 0 32 33" fill="none" xmlns="http://www.w3.org/2000/svg">
<path d="M16 0.777313C7.16533 0.777313 0 7.94131 0 16.7773C0 23.8466 4.584 29.844 10.9427 31.96C11.7413 32.108 12 32.6479 12 31.1906V28.212C7.54933 29.18 6.62267 26.324 6.62267 26.324C5.89467 24.4746 4.84533 23.9826 4.84533 23.9826C3.39333 22.9893 4.956 23.0106 4.956 23.0106C6.56267 23.1226 7.408 24.66 7.408 24.66C8.83467 27.1053 11.1507 26.3986 12.064 25.9893C12.2067 24.956 12.6213 24.2493 13.08 23.8506C9.52667 23.444 5.79067 22.072 5.79067 15.9426C5.79067 14.1946 6.416 12.768 7.43867 11.648C7.27333 11.244 6.72533 9.61598 7.59467 7.41331C7.59467 7.41331 8.93867 6.98398 11.996 9.05331C13.272 8.69865 14.64 8.52131 16 8.51465C17.36 8.52131 18.7293 8.69865 20.008 9.05331C23.0627 6.98398 24.404 7.41331 24.404 7.41331C25.2747 9.61731 24.7267 11.2453 24.5613 11.648C25.588 12.768 26.208 14.196 26.208 15.9426C26.208 22.088 22.4653 23.4413 18.9027 23.8373C19.476 24.3333 20 25.3066 20 26.8V31.1906C20 32.7591 20.256 32.116 21.068 31.9586C27.4213 29.84 32 23.844 32 16.7773C32 7.94131 24.836 0.777313 16 0.777313Z" fill="#84354C"/>
</svg>
