<svg width="32" height="33" viewBox="0 0 32 33" fill="none" xmlns="http://www.w3.org/2000/svg">
<path fill-rule="evenodd" clip-rule="evenodd" d="M0.788905 4.45207C0 6.00038 0 8.02724 0 12.081V20.919C0 24.9728 0 26.9996 0.788905 28.5479C1.48285 29.9099 2.59013 31.0172 3.95207 31.7111C5.50038 32.5 7.52724 32.5 11.581 32.5H20.419C24.4728 32.5 26.4996 32.5 28.0479 31.7111C29.4099 31.0172 30.5172 29.9099 31.2111 28.5479C32 26.9996 32 24.9728 32 20.919V12.081C32 8.02724 32 6.00038 31.2111 4.45207C30.5172 3.09013 29.4099 1.98285 28.0479 1.28891C26.4996 0.5 24.4728 0.5 20.419 0.5H11.581C7.52724 0.5 5.50038 0.5 3.95207 1.28891C2.59013 1.98285 1.48285 3.09013 0.788905 4.45207ZM11.9442 10.9539C11.9442 11.9304 11.0978 12.722 10.0537 12.722C9.00964 12.722 8.16323 11.9304 8.16323 10.9539C8.16323 9.97737 9.00964 9.18576 10.0537 9.18576C11.0978 9.18576 11.9442 9.97737 11.9442 10.9539ZM8.42176 14.0216H11.6534V23.8143H8.42176V14.0216ZM13.6247 14.0216H16.8563V15.278C17.3988 14.5879 18.4402 13.8252 20.1203 13.8252C22.9494 13.8252 23.8093 15.3458 23.8367 18.646V23.8143H20.605C20.605 23.1758 20.6006 22.5338 20.5962 21.892C20.5899 20.9817 20.5836 20.071 20.59 19.1719C20.5983 17.999 20.609 16.4849 18.8276 16.4849C17.2514 16.4849 16.8563 17.6469 16.8563 18.8039V23.8143H13.6247V14.0216Z" fill="#84354C"/>
</svg>
