<svg width="114" height="51" viewBox="0 0 114 51" fill="none" xmlns="http://www.w3.org/2000/svg">
<g clip-path="url(#clip0_477_23)">
<path d="M64.433 47.7507H65.183C65.3839 47.7386 65.5848 47.787 65.7589 47.8957C65.8929 48.0044 65.9732 48.1614 65.9598 48.3185C65.9732 48.4755 65.9062 48.6447 65.7857 48.7655C65.6518 48.8863 65.4777 48.9588 65.2902 48.9829V48.995C65.5848 49.0433 65.7991 49.2849 65.7857 49.5628C65.7991 49.7802 65.692 49.9977 65.5045 50.1426C65.2902 50.2876 65.0089 50.3722 64.7411 50.348H63.8438L64.433 47.7507ZM64.3259 49.0675L64.058 50.191H64.7277C64.942 50.203 65.1562 50.1426 65.3304 50.0339C65.4777 49.9252 65.558 49.7561 65.5446 49.5749C65.558 49.4299 65.4911 49.2849 65.3705 49.1883C65.2098 49.0916 65.0223 49.0554 64.8348 49.0675H64.3259ZM64.3661 48.9104H64.9152C65.1295 48.9225 65.3437 48.8742 65.5312 48.7655C65.6786 48.6688 65.7589 48.5118 65.7455 48.3427C65.7589 48.2218 65.692 48.101 65.5982 48.0165C65.4643 47.9319 65.3036 47.8957 65.1429 47.9078H64.6071L64.3661 48.9104Z" fill="white"/>
<path d="M66.2273 48.4152H66.4282L66.5889 49.3937C66.6558 49.8044 66.696 50.0702 66.696 50.191H66.7228C66.7764 50.0702 66.8969 49.8527 67.0844 49.5386L67.7674 48.4152H67.9683L66.5621 50.7104C66.4951 50.8192 66.4148 50.9279 66.321 51.0245C66.254 51.0849 66.1737 51.1333 66.0933 51.1695C65.9996 51.2057 65.9058 51.2299 65.8121 51.2178C65.7317 51.2178 65.638 51.2057 65.5576 51.1816V51.0125C65.638 51.0487 65.7317 51.0608 65.8255 51.0608C65.9326 51.0608 66.0264 51.0245 66.1201 50.9762C66.2273 50.8916 66.3076 50.795 66.3746 50.6863C66.4549 50.5534 66.5219 50.4447 66.5755 50.3601L66.2273 48.4152Z" fill="white"/>
<path d="M70.4729 49.6353H69.522L69.1069 50.3601H68.6113L70.1515 47.7628H70.6872L71.0087 50.3601H70.5533L70.4729 49.6353ZM70.4462 49.2608C70.3926 48.7655 70.3658 48.4756 70.3524 48.3668C70.339 48.2581 70.339 48.1856 70.339 48.1252C70.272 48.2823 70.1783 48.4635 70.0578 48.6688L69.7229 49.2608H70.4462Z" fill="white"/>
<path d="M71.7854 50.348H71.3301L71.9863 47.5815H72.4551L71.7854 50.348Z" fill="white"/>
<path d="M73.3396 48.391L73.0851 49.4782C73.0583 49.587 73.0315 49.7078 73.0181 49.8165C73.0181 49.9735 73.0985 50.0581 73.2726 50.0581C73.3797 50.0581 73.4735 50.0218 73.5538 49.9614C73.661 49.8769 73.7413 49.7802 73.8083 49.6594C73.8887 49.5145 73.9422 49.3695 73.969 49.2245L74.1699 48.391H74.6253L74.1699 50.3601H73.8083L73.8485 49.9977H73.8351C73.7413 50.1185 73.6342 50.2272 73.5003 50.2997C73.3931 50.3601 73.2592 50.3963 73.1253 50.3963C72.978 50.4084 72.8306 50.3601 72.7235 50.2635C72.6163 50.1547 72.5762 50.0218 72.5762 49.8769C72.5762 49.8044 72.5896 49.7319 72.603 49.6594C72.6163 49.587 72.6297 49.5145 72.6431 49.442L72.8842 48.4031L73.3396 48.391Z" fill="white"/>
<path d="M76.2991 48.3547C76.3661 48.3547 76.4464 48.3668 76.5134 48.3789L76.4063 48.7655C76.3393 48.7534 76.2723 48.7413 76.2054 48.7413C76.0313 48.7413 75.8705 48.8138 75.7634 48.9467C75.6295 49.1037 75.5357 49.2849 75.4955 49.4782L75.2812 50.3722H74.8125L75.2812 48.4031H75.6429L75.6027 48.7655H75.6161C75.6964 48.6447 75.817 48.5359 75.9375 48.4635C76.058 48.3789 76.1786 48.3547 76.2991 48.3547Z" fill="white"/>
<path d="M77.1564 50.3842C76.9823 50.3963 76.8216 50.3238 76.7145 50.203C76.5939 50.0581 76.5404 49.8769 76.5538 49.6957C76.5538 49.4661 76.5939 49.2366 76.6877 49.0192C76.7681 48.8259 76.902 48.6567 77.0627 48.5239C77.21 48.4031 77.3975 48.3427 77.5984 48.3427C77.719 48.3427 77.8261 48.3668 77.9332 48.4272C78.027 48.4876 78.1073 48.5722 78.1475 48.6688H78.1743L78.2948 48.391H78.6564L78.1877 50.3601H77.8127L77.8529 50.046H77.8395C77.6386 50.2755 77.4109 50.3842 77.1564 50.3842ZM77.3306 50.046C77.4511 50.0339 77.5716 49.9856 77.652 49.9131C77.7591 49.8044 77.8529 49.6836 77.9065 49.5386C77.9734 49.3816 78.0136 49.2004 78.0136 49.0312C78.0136 48.9346 77.9868 48.85 77.9198 48.7775C77.8529 48.7171 77.7725 48.6809 77.6788 48.6809C77.5582 48.6809 77.4377 48.7292 77.3573 48.8138C77.2502 48.9225 77.1698 49.0433 77.1163 49.1883C77.0627 49.3453 77.0225 49.5024 77.0225 49.6715C77.0091 49.7681 77.0493 49.8648 77.1029 49.9373C77.1565 50.0218 77.2368 50.0581 77.3306 50.046Z" fill="white"/>
<path d="M82.0717 48.4634C82.0851 48.7292 81.9646 48.9708 81.7369 49.1399C81.469 49.309 81.1342 49.3936 80.7994 49.3815H80.5851L80.3574 50.3479H79.8887L80.4914 47.7507H81.1476C81.3887 47.7386 81.6297 47.799 81.8306 47.9319C82.0047 48.0768 82.0851 48.2701 82.0717 48.4634ZM80.6789 49.0191H80.8663C81.0538 49.0312 81.2547 48.9829 81.4021 48.8741C81.536 48.7775 81.603 48.6325 81.5896 48.4755C81.603 48.3668 81.5628 48.2701 81.469 48.1976C81.3619 48.1372 81.2414 48.101 81.1208 48.1131H80.8931L80.6789 49.0191Z" fill="white"/>
<path d="M82.8615 50.3842C82.6874 50.3963 82.5267 50.3238 82.4196 50.203C82.299 50.0581 82.2455 49.8769 82.2588 49.6957C82.2588 49.4661 82.299 49.2366 82.3928 49.0192C82.4731 48.8259 82.5937 48.6567 82.7678 48.5239C82.9151 48.4031 83.1026 48.3427 83.2901 48.3427C83.4106 48.3427 83.5178 48.3668 83.6249 48.4272C83.7187 48.4876 83.799 48.5722 83.8392 48.6688H83.866L83.9865 48.391H84.3481L83.8794 50.3601H83.5178L83.558 50.046H83.5446C83.3437 50.2755 83.116 50.3842 82.8615 50.3842ZM83.0356 50.046C83.1562 50.0339 83.2767 49.9856 83.3571 49.9131C83.4642 49.8044 83.5579 49.6836 83.6115 49.5386C83.6785 49.3816 83.7187 49.2004 83.7187 49.0312C83.7187 48.9346 83.6919 48.85 83.6249 48.7775C83.558 48.7171 83.4776 48.6809 83.3838 48.6809C83.2633 48.6809 83.1428 48.7292 83.0758 48.8138C82.9687 48.9225 82.8883 49.0433 82.8347 49.1883C82.7812 49.3453 82.741 49.5024 82.741 49.6715C82.7276 49.7681 82.7678 49.8648 82.8213 49.9373C82.8615 50.0218 82.9419 50.0581 83.0356 50.046Z" fill="white"/>
<path d="M85.982 48.3547C86.049 48.3547 86.1293 48.3668 86.1963 48.3789L86.0891 48.7655C86.0222 48.7534 85.9552 48.7413 85.8883 48.7413C85.7141 48.7413 85.5534 48.8138 85.4463 48.9346C85.3124 49.0916 85.2186 49.2728 85.1784 49.4661L84.9641 50.3601H84.5088L84.9775 48.391H85.3391L85.299 48.7534H85.3124C85.3927 48.6326 85.5133 48.5239 85.6472 48.4514C85.7409 48.3789 85.8615 48.3547 85.982 48.3547Z" fill="white"/>
<path d="M86.8527 50.3842C86.6786 50.3963 86.5179 50.3238 86.4108 50.203C86.2902 50.0581 86.2367 49.8769 86.2501 49.6957C86.2501 49.4661 86.2902 49.2366 86.384 49.0192C86.4643 48.8259 86.5849 48.6567 86.759 48.5239C86.9063 48.4031 87.0938 48.3427 87.2947 48.3427C87.4152 48.3427 87.5224 48.3668 87.6295 48.4272C87.7233 48.4876 87.8036 48.5722 87.8438 48.6688H87.8706L87.9911 48.391H88.3527L87.884 50.3601H87.5224L87.5626 50.046H87.5492C87.3215 50.2755 87.0938 50.3842 86.8527 50.3842ZM87.0135 50.046C87.134 50.0339 87.2545 49.9856 87.3349 49.9131C87.442 49.8044 87.5358 49.6836 87.5893 49.5386C87.6563 49.3816 87.6965 49.2004 87.6965 49.0312C87.6965 48.9346 87.6697 48.85 87.6027 48.7775C87.5358 48.7171 87.4554 48.6809 87.3617 48.6809C87.2411 48.6809 87.1206 48.7292 87.0402 48.8138C86.9331 48.9225 86.8527 49.0433 86.7992 49.1883C86.7456 49.3453 86.7054 49.5024 86.7054 49.6715C86.692 49.7681 86.7188 49.8648 86.7858 49.9373C86.8393 50.0097 86.9331 50.0581 87.0135 50.046Z" fill="white"/>
<path d="M91.1117 50.348H89.585L90.1876 47.7507H91.7144L91.6341 48.1131H90.576L90.4153 48.8138H91.4064L91.326 49.1762H90.335L90.1475 49.9856H91.2189L91.1117 50.348Z" fill="white"/>
<path d="M93.1609 48.3547C93.4555 48.3547 93.6162 48.4997 93.6564 48.7775H93.6698C93.7501 48.6447 93.8707 48.5359 94.0046 48.4635C94.1251 48.391 94.2591 48.3547 94.393 48.3547C94.5403 48.3426 94.6876 48.391 94.7948 48.4876C94.8885 48.5963 94.9421 48.7292 94.9287 48.8742C94.9287 48.9829 94.9153 49.0916 94.8885 49.2004L94.6073 50.3601H94.1519L94.4332 49.1641C94.46 49.0796 94.46 49.0071 94.4734 48.9225C94.4734 48.7655 94.393 48.693 94.2323 48.693C94.0716 48.7051 93.9109 48.7896 93.8305 48.9104C93.6966 49.0796 93.6028 49.2849 93.5626 49.4903L93.3617 50.348H92.893L93.1742 49.152C93.1876 49.0796 93.201 49.0071 93.201 48.9225C93.201 48.7655 93.1207 48.6809 92.9734 48.6809C92.8126 48.693 92.6519 48.7775 92.5716 48.9104C92.4376 49.0916 92.3439 49.297 92.3037 49.5144L92.1162 50.348H91.6475L92.1162 48.3789H92.4778L92.4376 48.7413H92.451C92.6653 48.4755 92.893 48.3547 93.1609 48.3547Z" fill="white"/>
<path d="M96.2944 50.3842C96.0667 50.3842 95.8524 50.2634 95.7586 50.0701H95.7453C95.7319 50.1788 95.7185 50.2876 95.6917 50.3963L95.5042 51.2298H95.0488L95.7185 48.3909H96.0801L96.0399 48.7292H96.0533C96.2542 48.4876 96.4819 48.3547 96.7363 48.3547C96.9104 48.3426 97.0711 48.4151 97.1783 48.5359C97.2988 48.6809 97.3524 48.8621 97.339 49.0433C97.339 49.2728 97.2988 49.5023 97.2051 49.7198C97.1247 49.9131 97.0042 50.0822 96.8301 50.2151C96.6828 50.3238 96.4819 50.3842 96.2944 50.3842ZM96.5622 48.693C96.4417 48.705 96.3211 48.7534 96.2408 48.8379C96.1336 48.9466 96.0399 49.0674 95.9863 49.2124C95.9194 49.3695 95.8926 49.5265 95.8926 49.6956C95.8792 49.7923 95.9194 49.8889 95.9863 49.9614C96.0533 50.0218 96.147 50.058 96.2408 50.058C96.3613 50.058 96.4819 49.9976 96.5488 49.9131C96.656 49.8044 96.7229 49.6715 96.7765 49.5386C96.8301 49.3815 96.8569 49.2245 96.8569 49.0554C96.8569 48.8138 96.7631 48.693 96.5622 48.693Z" fill="white"/>
<path d="M99.094 48.3547C99.161 48.3547 99.2414 48.3668 99.3083 48.3789L99.2012 48.7655C99.1342 48.7534 99.0672 48.7413 99.0003 48.7413C98.8262 48.7413 98.6655 48.8138 98.5583 48.9346C98.4244 49.0916 98.3306 49.2728 98.2905 49.4661L98.0762 50.3601H97.6074L98.0762 48.391H98.4378L98.3976 48.7534H98.411C98.4914 48.6326 98.6119 48.5239 98.7458 48.4514C98.853 48.3789 98.9735 48.3547 99.094 48.3547Z" fill="white"/>
<path d="M100.179 50.3842C99.9511 50.3963 99.7368 50.3238 99.5761 50.1909C99.4288 50.046 99.3484 49.8406 99.3618 49.6352C99.3618 49.4057 99.4154 49.1883 99.5091 48.9829C99.6029 48.8017 99.7368 48.6326 99.9243 48.5118C100.098 48.403 100.299 48.3426 100.514 48.3426C100.688 48.3306 100.862 48.3789 101.009 48.4755C101.13 48.5601 101.197 48.7051 101.183 48.8379C101.183 49.0433 101.063 49.2487 100.848 49.3453C100.554 49.4782 100.232 49.5386 99.9109 49.5265H99.8305V49.5869V49.6352C99.8172 49.744 99.8573 49.8527 99.9377 49.9493C100.018 50.0339 100.152 50.0701 100.273 50.0581C100.366 50.0581 100.46 50.046 100.554 50.0218C100.674 49.9856 100.781 49.9493 100.889 49.901V50.2393C100.781 50.2876 100.661 50.3238 100.54 50.348C100.42 50.3722 100.299 50.3842 100.179 50.3842ZM100.473 48.6688C100.339 48.6688 100.206 48.7292 100.112 48.8259C99.9913 48.9346 99.9109 49.0795 99.8707 49.2245H99.9243C100.125 49.2366 100.326 49.2004 100.5 49.1279C100.621 49.0796 100.701 48.9829 100.714 48.8621C100.714 48.8138 100.701 48.7534 100.648 48.7171C100.607 48.6809 100.54 48.6688 100.473 48.6688Z" fill="white"/>
<path d="M102.83 49.744C102.843 49.9252 102.75 50.1065 102.602 50.2152C102.415 50.336 102.187 50.3964 101.96 50.3843C101.745 50.3843 101.518 50.3481 101.33 50.2635V49.9011C101.518 49.9977 101.732 50.0581 101.946 50.0581C102.053 50.0581 102.16 50.034 102.254 49.9856C102.335 49.9494 102.375 49.8648 102.375 49.7924C102.375 49.732 102.348 49.6836 102.308 49.6353C102.227 49.5628 102.134 49.5024 102.027 49.4662C101.893 49.4058 101.772 49.3212 101.678 49.2246C101.611 49.14 101.571 49.0313 101.571 48.9347C101.558 48.7655 101.638 48.6085 101.785 48.4998C101.946 48.391 102.147 48.3306 102.361 48.3427C102.602 48.3427 102.83 48.391 103.044 48.4877L102.897 48.8018C102.736 48.7172 102.562 48.6689 102.375 48.6689C102.294 48.6689 102.214 48.681 102.147 48.7293C102.093 48.7655 102.053 48.8259 102.053 48.8984C102.053 48.9467 102.08 49.0071 102.12 49.0434C102.201 49.1038 102.294 49.1642 102.388 49.2004C102.495 49.2487 102.589 49.3091 102.683 49.3816C102.736 49.4299 102.79 49.4783 102.817 49.5508C102.817 49.6112 102.83 49.6836 102.83 49.744Z" fill="white"/>
<path d="M103.889 50.3842C103.715 50.3963 103.554 50.3238 103.447 50.203C103.326 50.0581 103.273 49.8769 103.286 49.6957C103.286 49.4661 103.326 49.2366 103.42 49.0192C103.5 48.8259 103.621 48.6567 103.795 48.5239C103.942 48.4031 104.13 48.3427 104.317 48.3427C104.438 48.3427 104.545 48.3668 104.652 48.4272C104.746 48.4876 104.826 48.5722 104.867 48.6688H104.893L105.014 48.391H105.375L104.907 50.3601H104.545L104.585 50.046H104.572C104.371 50.2755 104.143 50.3842 103.889 50.3842ZM104.063 50.046C104.184 50.0339 104.304 49.9856 104.384 49.9131C104.492 49.8044 104.585 49.6836 104.639 49.5386C104.706 49.3816 104.746 49.2004 104.746 49.0312C104.746 48.9346 104.719 48.85 104.652 48.7775C104.585 48.7171 104.505 48.6809 104.411 48.6809C104.291 48.6809 104.17 48.7292 104.103 48.8138C103.996 48.9225 103.916 49.0433 103.862 49.1883C103.809 49.3453 103.768 49.5024 103.768 49.6715C103.755 49.7681 103.795 49.8648 103.849 49.9373C103.889 50.0218 103.969 50.0581 104.063 50.046Z" fill="white"/>
<path d="M106.982 49.744C106.996 49.9252 106.902 50.1065 106.755 50.2152C106.567 50.336 106.34 50.3964 106.112 50.3843C105.898 50.3843 105.67 50.3481 105.482 50.2635V49.9011C105.67 49.9977 105.884 50.0581 106.098 50.0581C106.206 50.0581 106.313 50.034 106.407 49.9856C106.487 49.9494 106.527 49.8648 106.527 49.7924C106.527 49.732 106.5 49.6836 106.46 49.6353C106.38 49.5628 106.286 49.5024 106.179 49.4662C106.045 49.4058 105.924 49.3212 105.831 49.2246C105.764 49.14 105.723 49.0313 105.723 48.9347C105.71 48.7655 105.79 48.6085 105.938 48.4998C106.098 48.391 106.299 48.3306 106.5 48.3427C106.741 48.3427 106.969 48.391 107.183 48.4877L107.036 48.8018C106.875 48.7172 106.701 48.6689 106.514 48.6689C106.433 48.6689 106.353 48.681 106.286 48.7293C106.232 48.7655 106.192 48.8259 106.192 48.8984C106.192 48.9467 106.219 49.0071 106.259 49.0434C106.34 49.1038 106.433 49.1642 106.527 49.2004C106.634 49.2487 106.728 49.3091 106.822 49.3816C106.875 49.4299 106.915 49.4783 106.956 49.5508C106.969 49.6112 106.982 49.6836 106.982 49.744Z" fill="white"/>
<path d="M58.6337 6.99138C57.6828 6.31488 56.29 5.95247 54.3346 5.95247C53.4507 5.94039 52.5534 6.01287 51.6828 6.16991C51.0534 6.32696 50.4507 6.58065 49.9283 6.93098C49.4864 7.23299 49.1382 7.64373 48.9239 8.10278C48.723 8.54976 48.6159 9.02089 48.6292 9.50411V9.99941C48.5757 10.1323 48.6828 10.2289 48.8301 10.2289H51.2275C51.3346 10.2169 51.415 10.1444 51.4284 10.0477C51.4685 9.56451 51.6828 9.10546 52.031 8.74304C52.4328 8.33231 53.1828 8.11486 54.281 8.11486C54.7498 8.10278 55.2319 8.16318 55.6739 8.29607C55.9819 8.40479 56.2766 8.54976 56.5176 8.74304C56.8792 9.06922 57.0935 9.50411 57.1203 9.96317V10.5913C57.1203 10.8088 57.0667 11.0262 56.973 11.2195C56.8926 11.3887 56.7721 11.5457 56.6248 11.6665C56.5176 11.7994 56.3837 11.896 56.223 11.9806C56.1158 12.0531 55.9953 12.1135 55.8748 12.1618C55.8212 12.2101 55.6203 12.2584 55.2185 12.3913C54.8167 12.5242 54.4685 12.6571 53.973 12.8021C53.4775 12.947 52.9685 13.0678 52.473 13.249C51.9775 13.4302 51.5221 13.5148 51.1203 13.6598C50.3301 13.8893 49.6739 14.3725 49.2721 15.0128C48.8569 15.6289 48.6292 16.3295 48.6292 17.0423V18.4436C48.656 18.8423 48.7498 19.2409 48.8837 19.6154C49.0444 20.0745 49.3391 20.4731 49.7275 20.7872C50.2096 21.21 50.7855 21.512 51.4284 21.6933C52.3525 21.9469 53.3167 22.0677 54.281 22.0557C55.2453 22.0919 56.2096 21.9711 57.1337 21.6933C57.7766 21.512 58.3792 21.198 58.8748 20.7872C59.2766 20.4731 59.5712 20.0745 59.7319 19.6154C59.8926 19.2409 59.973 18.8423 59.9864 18.4436V9.61283C59.9864 8.586 59.4908 7.63165 58.6337 6.99138ZM56.531 19.2047C56.1292 19.5671 55.3257 19.7845 54.281 19.7845C53.2364 19.7845 52.4864 19.6033 52.0846 19.2409C51.6426 18.7577 51.4284 18.1537 51.4819 17.5255C51.4819 17.2114 51.5355 16.849 51.7364 16.5832C51.8971 16.3537 52.0712 16.1363 52.2855 15.9551C52.4864 15.8222 52.781 15.6893 53.0355 15.5443C53.3301 15.4114 53.7855 15.3148 54.1337 15.1819C54.4819 15.0369 54.8569 14.9161 55.2319 14.8195C55.6337 14.7349 55.9819 14.59 56.3301 14.5054C56.5042 14.4571 56.6783 14.3846 56.8257 14.2759C57.0132 14.1792 57.1337 14.0101 57.1739 13.8289L57.1203 17.5255C57.1739 18.1295 56.9596 18.7336 56.531 19.2047Z" fill="white"/>
<path d="M45.8436 5.95247H47.4374C47.5445 5.96455 47.6249 6.03703 47.6383 6.13367V6.16992L47.0892 8.06654C47.0892 8.16319 46.9954 8.19943 46.8883 8.19943H45.7901C45.2945 8.18735 44.799 8.25983 44.3436 8.42896C44.0222 8.53768 43.7276 8.70681 43.4999 8.92425C43.3258 9.09338 43.1785 9.28667 43.0981 9.50411C43.0445 9.6974 43.0043 9.89069 42.991 10.084V21.802C43.0043 21.9228 42.8972 22.0194 42.7767 22.0315C42.7633 22.0315 42.7633 22.0315 42.7499 22.0315H40.3526C40.232 22.0194 40.1383 21.9228 40.1517 21.802V9.60076C40.1517 9.28667 40.2052 8.96049 40.299 8.65848C40.3927 8.19943 40.6472 7.77661 40.9954 7.43836C41.4776 6.99139 42.0535 6.62897 42.6963 6.39944C43.6874 6.04911 44.7722 5.89207 45.8436 5.95247Z" fill="white"/>
<path d="M37.7005 17.8396V18.3832C37.7005 18.7214 37.6469 19.0476 37.5532 19.3738C37.446 19.8328 37.205 20.2436 36.8567 20.5939C36.3746 21.0409 35.7987 21.4033 35.1559 21.6328C34.1514 21.959 33.08 22.116 32.0085 22.0798C30.9371 22.1039 29.8657 21.959 28.8612 21.6328C28.2184 21.4154 27.6291 21.0529 27.1603 20.5939C26.8121 20.2556 26.571 19.8328 26.4639 19.3738C26.3567 19.0597 26.3567 18.7456 26.3166 18.4315V6.13363C26.3032 6.01282 26.4103 5.91618 26.5309 5.9041C26.5442 5.9041 26.5442 5.9041 26.5576 5.9041H28.9014C29.0353 5.89202 29.1425 5.98866 29.1559 6.10946C29.1559 6.12155 29.1559 6.12154 29.1559 6.13363V17.5859C29.1692 17.8758 29.196 18.1536 29.263 18.4436C29.3434 18.6731 29.4907 18.8906 29.6648 19.0718C29.8925 19.3013 30.1871 19.4704 30.5085 19.5671C30.9907 19.712 31.4996 19.7845 32.0085 19.7966C32.5309 19.8087 33.0666 19.7362 33.5621 19.5671C33.8835 19.4825 34.1782 19.3254 34.4059 19.1201C34.6067 18.963 34.7407 18.7577 34.8076 18.5281C34.9148 18.2382 34.955 17.9362 34.955 17.6221V6.13363C34.9416 6.0249 35.0353 5.91618 35.1559 5.9041H37.5532C37.6871 5.89202 37.7942 5.98866 37.8076 6.10946C37.8076 6.12155 37.8076 6.12154 37.8076 6.13363L37.7005 17.8396Z" fill="white"/>
<path d="M21.3619 0.129686H23.7056C23.8396 0.117606 23.9467 0.214249 23.9601 0.322973C23.9601 0.335053 23.9601 0.347134 23.9601 0.347134V21.8503C23.9735 21.9711 23.8663 22.0677 23.7324 22.0798C23.719 22.0798 23.719 22.0798 23.7056 22.0798H21.3619C21.228 22.0919 21.1208 21.9952 21.1074 21.8744C21.1074 21.8624 21.1074 21.8624 21.1074 21.8503V0.347134C21.161 0.214249 21.2547 0.129686 21.3619 0.129686Z" fill="white"/>
<path d="M7.41992 27.6851C7.43331 27.4677 7.62081 27.2865 7.87528 27.2744H10.728C10.969 27.2865 11.1699 27.4556 11.1833 27.6851V41.9159C11.1699 42.1333 10.9824 42.3145 10.728 42.3266H7.87528C7.63421 42.3145 7.43331 42.1454 7.41992 41.9159V27.6851Z" fill="white"/>
<path d="M15.2549 27.4555C15.2683 27.2381 15.4692 27.069 15.7102 27.069H16.2995L25.8085 35.3199H25.8352V27.6851C25.8352 27.4555 26.0361 27.2743 26.2906 27.2743H29.1433C29.3843 27.2864 29.5852 27.4555 29.5986 27.6851V42.1453C29.5852 42.3628 29.3843 42.5319 29.1433 42.5319H28.7683C28.6611 42.5198 28.554 42.4836 28.4602 42.4232L19.0451 33.8944H19.0183V41.9158C19.0183 42.1453 18.8174 42.3265 18.5629 42.3265H15.737C15.496 42.3145 15.2951 42.1453 15.2817 41.9158L15.2549 27.4555Z" fill="white"/>
<path d="M41.0897 27.069C43.4736 27.069 45.2415 27.7334 46.8486 29.0622C47.0361 29.1951 47.0629 29.4488 46.9156 29.63C46.9022 29.6421 46.8888 29.6542 46.8754 29.6663L45.0138 31.4179C44.8531 31.5629 44.5852 31.5629 44.4245 31.4179C43.5406 30.7173 42.3888 30.3186 41.2102 30.3186C38.5183 30.3186 36.5361 32.336 36.5361 34.74C36.5361 37.132 38.5451 39.1011 41.2236 39.1011C42.3888 39.1011 43.5138 38.7387 44.4111 38.0742C44.5986 37.9413 44.8531 37.9534 45.0272 38.0984L46.8888 39.8742C47.0495 40.0433 47.0361 40.297 46.862 40.4541C45.3085 41.8071 43.2326 42.5561 41.0763 42.544C36.3352 42.544 32.5049 39.0769 32.5049 34.8125C32.5049 30.5481 36.3486 27.069 41.0897 27.069Z" fill="white"/>
<path d="M49.7275 27.6851C49.7275 27.4556 49.9284 27.2744 50.1829 27.2744H53.0222C53.2633 27.2865 53.4641 27.4556 53.4775 27.6851V39.1615H59.1427C59.3972 39.1615 59.5981 39.3428 59.5981 39.5723V41.9159C59.5981 42.1454 59.3972 42.3266 59.1427 42.3266H50.1829C49.9284 42.3266 49.7275 42.1454 49.7275 41.9159V27.6851Z" fill="white"/>
<path d="M61.4736 27.6851C61.487 27.4677 61.6745 27.2865 61.929 27.2744H64.862C65.1165 27.2744 65.3174 27.4556 65.3174 27.6851V36.3831C65.3174 37.8931 66.5495 39.0891 68.2504 39.0891C69.9647 39.0891 71.2236 37.881 71.2236 36.3831V27.6851C71.2236 27.4556 71.4245 27.2744 71.679 27.2744H74.612C74.8531 27.2865 75.054 27.4556 75.0674 27.6851V36.5643C75.0674 39.826 72.0138 42.5441 68.2504 42.5441C64.5138 42.5441 61.487 39.8381 61.487 36.5643L61.4736 27.6851Z" fill="white"/>
<path d="M78.8975 27.6851C78.8975 27.4677 79.085 27.2865 79.326 27.2744H85.1385C89.7323 27.2744 93.4957 30.6448 93.4957 34.7764C93.4957 38.9441 89.7457 42.3145 85.1385 42.3145H79.326C79.085 42.3025 78.8975 42.1212 78.8975 41.9038V27.6851ZM84.8975 39.1495C87.5894 39.1495 89.5448 37.2408 89.5448 34.7884C89.5448 32.3603 87.5894 30.4516 84.8975 30.4516H82.6073V39.1495H84.8975Z" fill="white"/>
<path d="M96.415 27.6851C96.415 27.4556 96.6159 27.2744 96.8704 27.2744H106.728C106.982 27.2744 107.183 27.4556 107.183 27.6851V30.0287C107.183 30.2583 106.982 30.4395 106.728 30.4395H100.125V33.1093H105.562C105.803 33.1213 106.004 33.2905 106.018 33.52V35.8636C106.018 36.0931 105.817 36.2743 105.562 36.2743H100.125V39.1736H106.728C106.982 39.1736 107.183 39.3548 107.183 39.5844V41.928C107.183 42.1575 106.982 42.3387 106.728 42.3387H96.8704C96.6159 42.3387 96.415 42.1575 96.415 41.928V27.6851Z" fill="white"/>
<path d="M17.4107 6.99138C16.4598 6.31488 15.067 5.95247 13.1116 5.95247C12.2277 5.94039 11.3304 6.01287 10.4598 6.16991C9.81696 6.3028 9.22768 6.56857 8.71875 6.93098C8.27679 7.23299 7.92857 7.64373 7.71429 8.10278C7.51339 8.54976 7.41964 9.02089 7.41964 9.50411V10.0477C7.40625 10.1685 7.51339 10.2652 7.63393 10.2773C7.64732 10.2773 7.64732 10.2773 7.66071 10.2773H10.0045C10.1116 10.2652 10.192 10.1927 10.2054 10.0961C10.2455 9.61283 10.4598 9.15378 10.808 8.79137C11.2098 8.38063 11.9598 8.16318 13.058 8.16318C13.5268 8.11486 14.0089 8.16318 14.4643 8.29607C14.7723 8.40479 15.067 8.54976 15.308 8.74304C15.6696 9.05714 15.8839 9.50411 15.9107 9.96317V10.5913C15.9107 10.8088 15.8571 11.0262 15.7634 11.2195C15.683 11.3887 15.5625 11.5457 15.4152 11.6665C15.308 11.7994 15.1741 11.896 15.0134 11.9806C14.9062 12.0531 14.7857 12.1135 14.6652 12.1618C14.6116 12.2101 14.4107 12.2584 14.0223 12.3913C13.6339 12.5242 13.2723 12.6571 12.7768 12.8021C12.2812 12.947 11.7857 13.0678 11.2768 13.249C10.7679 13.4302 10.3125 13.5148 9.91071 13.6598C9.13393 13.8893 8.46429 14.3725 8.0625 15.0128C7.64732 15.6289 7.41964 16.3295 7.40625 17.0423V18.4315C7.43304 18.8302 7.52679 19.2288 7.66071 19.6033C7.82143 20.0624 8.11607 20.4611 8.50446 20.7751C8.98661 21.198 9.5625 21.5 10.2054 21.6812C11.1295 21.9349 12.0937 22.0557 13.058 22.0436C14.0223 22.0798 14.9866 21.959 15.9107 21.6812C16.5536 21.5 17.1562 21.1859 17.6652 20.7751C18.067 20.4611 18.3616 20.0624 18.5089 19.6033C18.6696 19.2288 18.75 18.8302 18.7634 18.4315V9.60075C18.7634 8.586 18.2679 7.63165 17.4107 6.99138ZM15.3616 19.2047C14.9598 19.5671 14.2098 19.7845 13.1116 19.7845C12.0134 19.7845 11.2634 19.6033 10.8616 19.2409C10.4196 18.7577 10.2054 18.1537 10.2589 17.5255C10.2589 17.1993 10.3527 16.8732 10.5 16.5832C10.6607 16.3537 10.8348 16.1483 11.0491 15.9551C11.25 15.8222 11.5446 15.6893 11.7991 15.5443C12.0937 15.4114 12.5491 15.3148 12.8973 15.1819C13.2455 15.0369 13.6205 14.9161 13.9955 14.8195C14.3973 14.7349 14.7455 14.59 15.0937 14.5054C15.2679 14.4571 15.442 14.3846 15.5893 14.2759C15.7768 14.1792 15.8973 14.0101 15.9375 13.8289V17.5255C16.0312 18.1416 15.8036 18.7456 15.3616 19.2047Z" fill="white"/>
</g>
<defs>
<clipPath id="clip0_477_23">
<rect width="114" height="50.9956" fill="white"/>
</clipPath>
</defs>
</svg>
