<svg width="32" height="32" viewBox="0 0 32 32" fill="none" xmlns="http://www.w3.org/2000/svg">
<g clip-path="url(#clip0_477_82)">
<path d="M5.33301 8.00004C5.33301 7.2928 5.61396 6.61452 6.11406 6.11442C6.61415 5.61433 7.29243 5.33337 7.99967 5.33337H23.9997C24.7069 5.33337 25.3852 5.61433 25.8853 6.11442C26.3854 6.61452 26.6663 7.2928 26.6663 8.00004V24C26.6663 24.7073 26.3854 25.3856 25.8853 25.8857C25.3852 26.3858 24.7069 26.6667 23.9997 26.6667H7.99967C7.29243 26.6667 6.61415 26.3858 6.11406 25.8857C5.61396 25.3856 5.33301 24.7073 5.33301 24V8.00004Z" stroke="white" stroke-width="2.75" stroke-linecap="round" stroke-linejoin="round"/>
<path d="M10.667 14.6666V21.3333" stroke="white" stroke-width="2.75" stroke-linecap="round" stroke-linejoin="round"/>
<path d="M10.667 10.6666V10.68" stroke="white" stroke-width="2.75" stroke-linecap="round" stroke-linejoin="round"/>
<path d="M16 21.3333V14.6666" stroke="white" stroke-width="2.75" stroke-linecap="round" stroke-linejoin="round"/>
<path d="M21.3333 21.3333V17.3333C21.3333 16.626 21.0524 15.9478 20.5523 15.4477C20.0522 14.9476 19.3739 14.6666 18.6667 14.6666C17.9594 14.6666 17.2811 14.9476 16.781 15.4477C16.281 15.9478 16 16.626 16 17.3333" stroke="white" stroke-width="2.75" stroke-linecap="round" stroke-linejoin="round"/>
</g>
<defs>
<clipPath id="clip0_477_82">
<rect width="32" height="32" fill="white"/>
</clipPath>
</defs>
</svg>
